<svg width="16" height="16" viewBox="0 0 16 16" fill="none" xmlns="http://www.w3.org/2000/svg">
<g id="favorite_FILL0_wght400_GRAD0_opsz48 1">
<path id="Vector" d="M7.99967 13.9833L7.31634 13.3666C6.13856 12.2888 5.16634 11.3583 4.39967 10.5749C3.63301 9.7916 3.0219 9.0916 2.56634 8.47494C2.11079 7.85827 1.79134 7.29993 1.60801 6.79993C1.42467 6.29993 1.33301 5.79438 1.33301 5.28327C1.33301 4.28327 1.66912 3.44716 2.34134 2.77493C3.01356 2.10271 3.84412 1.7666 4.83301 1.7666C5.46634 1.7666 6.05245 1.9166 6.59134 2.2166C7.13023 2.5166 7.59967 2.94993 7.99967 3.5166C8.46634 2.9166 8.96079 2.47493 9.48301 2.1916C10.0052 1.90827 10.5663 1.7666 11.1663 1.7666C12.1552 1.7666 12.9858 2.10271 13.658 2.77493C14.3302 3.44716 14.6663 4.28327 14.6663 5.28327C14.6663 5.79438 14.5747 6.29993 14.3913 6.79993C14.208 7.29993 13.8886 7.85827 13.433 8.47494C12.9775 9.0916 12.3663 9.7916 11.5997 10.5749C10.833 11.3583 9.86078 12.2888 8.68301 13.3666L7.99967 13.9833ZM7.99967 12.6666C9.1219 11.6333 10.0469 10.7472 10.7747 10.0083C11.5025 9.26938 12.0802 8.62216 12.508 8.0666C12.9358 7.51105 13.2358 7.0166 13.408 6.58327C13.5802 6.14993 13.6663 5.7166 13.6663 5.28327C13.6663 4.54994 13.433 3.94716 12.9663 3.47493C12.4997 3.00271 11.8997 2.7666 11.1663 2.7666C10.5997 2.7666 10.0719 2.9416 9.58301 3.2916C9.09412 3.6416 8.69967 4.13327 8.39967 4.7666H7.58301C7.29412 4.14438 6.90523 3.65549 6.41634 3.29993C5.92745 2.94438 5.39967 2.7666 4.83301 2.7666C4.09967 2.7666 3.49967 3.00271 3.03301 3.47493C2.56634 3.94716 2.33301 4.54994 2.33301 5.28327C2.33301 5.7166 2.41912 6.15271 2.59134 6.5916C2.76356 7.03049 3.06356 7.53049 3.49134 8.0916C3.91912 8.65271 4.49967 9.29993 5.23301 10.0333C5.96634 10.7666 6.88856 11.6444 7.99967 12.6666Z" fill="#0E1838"/>
</g>
</svg>
